HIERARCHY
ROOT Hips
{
	OFFSET 0.000000 0.000000 0.000000
	CHANNELS 6 Xposition Yposition Zposition Zrotation Yrotation Xrotation 
	JOINT LHipJoint
	{
		OFFSET 0.000000 0.000000 0.000000
		CHANNELS 3 Zrotation Yrotation Xrotation
		JOINT LeftUpLeg
		{
			OFFSET 1.363060 -1.794630 0.839290
			CHANNELS 3 Zrotation Yrotation Xrotation
			JOINT LeftLeg
			{
				OFFSET 2.448110 -6.726130 0.000000
				CHANNELS 3 Zrotation Yrotation Xrotation
				JOINT LeftFoot
				{
					OFFSET 2.562200 -7.039590 0.000000
					CHANNELS 3 Zrotation Yrotation Xrotation
					JOINT LeftToeBase
					{
						OFFSET 0.157640 -0.433110 2.322550
						CHANNELS 3 Zrotation Yrotation Xrotation
						End Site
						{
							OFFSET 0.000000 0.000000 0.000000
						}
					}
				}
			}
		}
	}
	JOINT RHipJoint
	{
		OFFSET 0.000000 0.000000 0.000000
		CHANNELS 3 Zrotation Yrotation Xrotation
		JOINT RightUpLeg
		{
			OFFSET -1.305520 -1.794630 0.839290
			CHANNELS 3 Zrotation Yrotation Xrotation
			JOINT RightLeg
			{
				OFFSET -2.542530 -6.985550 0.000000
				CHANNELS 3 Zrotation Yrotation Xrotation
				JOINT RightFoot
				{
					OFFSET -2.568260 -7.056230 0.000000
					CHANNELS 3 Zrotation Yrotation Xrotation
					JOINT RightToeBase
					{
						OFFSET -0.164730 -0.452590 2.363150
						CHANNELS 3 Zrotation Yrotation Xrotation
						End Site
						{
							OFFSET 0.000000 0.000000 0.000000
						}
					}
				}
			}
		}
	}
}
MOTION
Frames: 16
Frame Time: 0.008333
-12.906436 15.899950 -1.647095 161.804256 85.856213 -175.801546 -11.953358 1.651862 -4.623433 -1.844242 10.232629 -18.968694 -1.090187 3.444846 51.588635 0.335275 -0.071939 -6.146162 0.001800 0.000000 -78.604601 8.385375 2.104842 -1.779562 11.523450 1.318986 -58.724569 1.036412 -4.326767 54.140563 -1.964703 -5.638788 -15.542379 0.616600 0.000001 -12.148100
-12.769839 15.897734 -1.620108 160.553934 85.876093 -176.984509 -11.950537 1.700939 -4.534699 -1.743026 9.918844 -18.793030 -0.983092 3.447276 51.797615 0.348109 -0.051174 -4.973936 -0.004300 -0.000000 -79.153300 8.427529 2.083121 -1.773717 11.489589 1.444898 -58.431016 1.004497 -4.340057 54.679435 -2.016663 -5.746180 -16.247449 0.726300 -0.000000 -11.917700
-12.634941 15.897106 -1.593630 159.371513 85.901244 -178.084890 -11.950956 1.741203 -4.450743 -1.651528 9.616254 -18.699774 -0.869643 3.454598 52.085451 0.367262 -0.020554 -3.728855 -0.013900 -0.000000 -79.569400 8.466486 2.058630 -1.760547 11.453330 1.599209 -58.134625 0.972282 -4.348725 55.173664 -2.067372 -5.859251 -16.894040 0.830700 -0.000000 -11.616900
-12.502006 15.898220 -1.567706 158.307926 85.935658 -179.055310 -11.955685 1.772000 -4.373294 -1.560999 9.334870 -18.693058 -0.750094 3.467757 52.457946 0.392627 0.008551 -2.395425 -0.027700 -0.000000 -79.816900 8.500963 2.031582 -1.742966 11.425357 1.776751 -57.829190 0.942386 -4.352169 55.618207 -2.119097 -5.980990 -17.509199 0.934000 0.000000 -11.248500
-12.371188 15.901175 -1.542338 157.406542 85.982858 -179.855110 -11.965158 1.793005 -4.303353 -1.464634 9.082609 -18.774451 -0.625275 3.487094 52.917067 0.424785 0.029980 -0.965305 -0.047300 -0.000001 -79.837100 8.530117 2.002035 -1.723661 11.416104 1.970168 -57.508464 0.917532 -4.349810 56.005161 -2.173418 -6.111957 -18.113899 1.039600 0.000000 -10.844400
-12.242586 15.906034 -1.517479 156.695329 86.045080 179.540404 -11.979057 1.804039 -4.241376 -1.358193 8.865474 -18.943544 -0.496699 3.512409 53.461032 0.464850 0.044148 0.559739 -0.073800 0.000000 -79.554200 8.553679 1.970165 -1.704921 11.433656 2.170684 -57.166497 0.900185 -4.341210 56.326625 -2.231059 -6.249660 -18.723947 1.149900 0.000001 -10.433400
-12.116241 15.912739 -1.492977 156.179532 86.123468 179.133517 -11.996393 1.805093 -4.187481 -1.240618 8.686771 -19.196948 -0.366484 3.543054 54.085337 0.514199 0.059350 2.164410 -0.106999 -0.000000 -78.876800 8.571962 1.936062 -1.688670 11.483351 2.368977 -56.797793 0.892207 -4.326182 56.575989 -2.291618 -6.388468 -19.346969 1.265800 -0.000000 -10.040700
-11.992127 15.921195 -1.468677 155.846167 86.217227 178.908173 -12.015727 1.796242 -4.141428 -1.114555 8.547171 -19.529957 -0.237188 3.578127 54.783684 0.574031 0.092121 3.818010 -0.143900 0.000000 -77.701300 8.585717 1.899874 -1.676222 11.566539 2.555475 -56.398767 0.894682 -4.304856 56.749214 -2.353712 -6.520450 -19.982839 1.386700 0.000000 -9.684400
-11.870183 15.931248 -1.444341 155.623036 86.323373 178.789165 -12.034706 1.777841 -4.103120 -0.988852 8.444168 -19.934135 -0.111540 3.616265 55.546521 0.645118 0.170025 5.472650 -0.176301 0.000000 -75.958200 8.596675 1.861964 -1.668157 11.677835 2.721044 -55.968089 0.907417 -4.277855 56.845747 -2.414847 -6.636390 -20.620847 1.509501 -0.000001 -9.407600
-11.750293 15.942750 -1.419883 155.514162 86.440424 178.778615 -12.052557 1.749969 -4.072379 -0.865443 8.378438 -20.406728 0.008153 3.657460 56.370476 0.726649 0.315356 7.073562 -0.193500 0.000000 -73.501500 8.605200 1.821770 -1.664448 11.817450 2.861397 -55.505581 0.930264 -4.245589 56.867864 -2.472917 -6.727971 -21.253302 1.631200 0.000001 -9.160500
-11.632354 15.955478 -1.395216 155.461829 86.564905 178.817291 -12.067642 1.713118 -4.049258 -0.753109 8.347160 -20.941408 0.120164 3.701281 57.247892 0.817349 0.560694 8.552913 -0.179900 -0.000000 -70.304300 8.612645 1.779213 -1.664311 11.977851 2.973091 -55.013724 0.961817 -4.208933 56.821008 -2.525388 -6.788504 -21.864655 1.747300 0.000000 -8.943800
-11.516340 15.969264 -1.370066 155.328728 86.691062 178.765054 -12.077371 1.667771 -4.034615 -0.666541 8.344741 -21.528484 0.223962 3.746769 58.168043 0.915508 0.940958 9.842849 -0.117700 -0.000000 -66.476000 8.621588 1.734621 -1.666995 12.144567 3.052818 -54.496051 0.999778 -4.169494 56.714463 -2.569536 -6.813036 -22.436682 1.852800 0.000000 -8.780600
-11.402178 15.983990 -1.344484 155.073186 86.816083 178.579840 -12.080989 1.614109 -4.028959 -0.611261 8.368974 -22.165177 0.319921 3.794206 59.124942 1.018798 1.476433 10.885777 0.006300 0.000000 -62.100300 8.632877 1.687696 -1.671222 12.310692 3.103389 -53.956747 1.042254 -4.128263 56.557501 -2.604248 -6.801646 -22.958756 1.944399 0.000000 -8.645099
-11.289801 15.999541 -1.318406 154.613073 86.936170 178.179020 -12.077303 1.552286 -4.032765 -0.595152 8.414734 -22.846352 0.409262 3.843185 60.109069 1.125625 2.180545 11.641295 0.199200 -0.000000 -57.407700 8.647805 1.638566 -1.675875 12.466422 3.128147 -53.400557 1.087224 -4.086479 56.360392 -2.629097 -6.757161 -23.424107 2.020400 -0.000001 -8.521200
-11.179176 16.015850 -1.292067 153.947924 87.050099 177.563796 -12.066554 1.482177 -4.045766 -0.619384 8.477624 -23.572162 0.493309 3.893994 61.113695 1.234781 3.050545 12.085322 0.458100 -0.000000 -52.650900 8.666021 1.587199 -1.679761 12.608403 3.134506 -52.832030 1.133219 -4.044596 56.131237 -2.645227 -6.686659 -23.833204 2.081200 -0.000000 -8.380700
-11.070282 16.032885 -1.265498 153.022235 87.154589 176.679538 -12.048408 1.403594 -4.067694 -0.688263 8.549997 -24.339826 0.573458 3.946027 62.130384 1.345738 4.071468 12.213358 0.770400 0.000000 -48.068200 8.687780 1.534053 -1.682401 12.729841 3.127549 -52.255434 1.178920 -4.003410 55.878245 -2.654204 -6.598124 -24.190833 2.128800 -0.000000 -8.205300
